HIERARCHY
ROOT Hips
{
  OFFSET 59.0837 95.6022 0.517306
  CHANNELS 6 Xposition Yposition Zposition Zrotation Xrotation Yrotation
  JOINT spine
  {
    OFFSET 0 7.96568 0.458067
    CHANNELS 3 Zrotation Xrotation Yrotation
    JOINT spine1
    {
      OFFSET 0 10.2431 0
      CHANNELS 3 Zrotation Xrotation Yrotation
      JOINT spine2
      {
        OFFSET 0 9.81475 0
        CHANNELS 3 Zrotation Xrotation Yrotation
        JOINT Neck
        {
          OFFSET 0 25.1986 1.20138
          CHANNELS 3 Zrotation Xrotation Yrotation
          JOINT Head
          {
            OFFSET 0 7.61315 0
            CHANNELS 3 Zrotation Xrotation Yrotation
            End Site
            {
              OFFSET 0 18.4281 -6.07732
            }
          }
        }
        JOINT RightShoulder
        {
          OFFSET -4.1327 10.5992 -0.575451
          CHANNELS 3 Zrotation Xrotation Yrotation
          JOINT RightArm
          {
            OFFSET 0 13.9018 0
            CHANNELS 3 Zrotation Xrotation Yrotation
            JOINT RightArmRoll
            {
              OFFSET 0 7.01788 0
              CHANNELS 3 Zrotation Xrotation Yrotation
              JOINT RightForeArm
              {
                OFFSET 0 20.4406 0
                CHANNELS 3 Zrotation Xrotation Yrotation
                JOINT RightForeArmRoll
                {
                  OFFSET 0 7.87515 0
                  CHANNELS 3 Zrotation Xrotation Yrotation
                  JOINT RightHand
                  {
                    OFFSET 0 15.8037 0
                    CHANNELS 3 Zrotation Xrotation Yrotation
                    End Site
                    {
                      OFFSET 0 0 0
                    }
                  }
                }
              }
            }
          }
        }
        JOINT LeftShoulder
        {
          OFFSET 4.1327 10.5992 -0.575451
          CHANNELS 3 Zrotation Xrotation Yrotation
          JOINT LeftArm
          {
            OFFSET 0 13.9018 0
            CHANNELS 3 Zrotation Xrotation Yrotation
            JOINT LeftArmRoll
            {
              OFFSET 0 7.01789 0
              CHANNELS 3 Zrotation Xrotation Yrotation
              JOINT LeftForeArm
              {
                OFFSET 0 20.4406 0
                CHANNELS 3 Zrotation Xrotation Yrotation
                JOINT LeftForeArmRoll
                {
                  OFFSET 0 7.87515 0
                  CHANNELS 3 Zrotation Xrotation Yrotation
                  JOINT LeftHand
                  {
                    OFFSET 0 15.8037 0
                    CHANNELS 3 Zrotation Xrotation Yrotation
                    End Site
                    {
                      OFFSET 0 0 0
                    }
                  }
                }
              }
            }
          }
        }
      }
    }
  }
  JOINT RightUpLeg
  {
    OFFSET -7.06048 -1.2947 -1.0861
    CHANNELS 3 Zrotation Xrotation Yrotation
    JOINT RightUpLegRoll
    {
      OFFSET 0 18.5308 0
      CHANNELS 3 Zrotation Xrotation Yrotation
      JOINT RightLeg
      {
        OFFSET 0 -22.9476 0
        CHANNELS 3 Zrotation Xrotation Yrotation
        JOINT RightLegRoll
        {
          OFFSET 0 23.0226 0
          CHANNELS 3 Zrotation Xrotation Yrotation
          JOINT RightFoot
          {
            OFFSET 0 19.1625 0
            CHANNELS 3 Zrotation Xrotation Yrotation
            JOINT RightToeBase
            {
              OFFSET 0 16.0188 0
              CHANNELS 3 Zrotation Xrotation Yrotation
              End Site
              {
                OFFSET 0.00678979 7.75782 -0.894206
              }
            }
          }
        }
      }
    }
  }
  JOINT LeftUpLeg
  {
    OFFSET 7.06048 -1.2947 -1.0861
    CHANNELS 3 Zrotation Xrotation Yrotation
    JOINT LeftUpLegRoll
    {
      OFFSET 0 18.5309 0
      CHANNELS 3 Zrotation Xrotation Yrotation
      JOINT LeftLeg
      {
        OFFSET 0 22.9475 0
        CHANNELS 3 Zrotation Xrotation Yrotation
        JOINT LeftLegRoll
        {
          OFFSET 0 23.2355 0
          CHANNELS 3 Zrotation Xrotation Yrotation
          JOINT LeftFoot
          {
            OFFSET 0 18.9496 0
            CHANNELS 3 Zrotation Xrotation Yrotation
            JOINT LeftToeBase
            {
              OFFSET 0 16.0188 0
              CHANNELS 3 Zrotation Xrotation Yrotation
              End Site
              {
                OFFSET -0.0304289 7.75782 -0.894206
              }
            }
          }
        }
      }
    }
  }
}
MOTION
Frames: 6
Frame Time: 0.00208333
62.9694 95.5115 3.52777 3.29911 3.36573 62.9299 -1.22145 -0.720903 1.06482 -2.44182 2.54644 2.27257 -2.47175 4.19008 2.31533 -43.7502 -17.495 0.0825891 35.9541 19.2368 -2.36012 22.2944 1.64912 7.78937 -167.237 63.4314 -78.2418 7.95139e-016 -2.84262e-014 1.90833e-014 -5.63684 22.5544 -0.454715 -9.94161e-006 -1.05198e-005 -3.00257 8.03023 -4.95114 0.6976 -85.7278 -20.67 9.97787 -80.4287 25.1577 1.31792 1.67583e-005 -7.88591e-006 -8.34393e-007 -17.0873 55.0383 11.977 1.98989e-005 -7.96436e-006 2.99999 -8.02954 -4.95103 -0.697567 174.976 -10.1923 4.9452 180 7.01508e-015 178.766 179.996 12.683 179.385 -3.89014e-006 2.18043e-006 0.577795 -23.9988 73.2309 25.238 8.34182 34.0577 -1.20862 -177.319 9.9599 0.179088 4.5067e-006 -1.99009e-005 -0.981451 -2.56987 -10.9644 0.0266784 1.01185e-006 -4.00627e-006 -0.106527 17.9483 66.9465 -18.7082 -8.13649 25.2327 3.48774 
62.9589 95.5085 3.52393 3.25885 3.34179 62.9441 -1.20645 -0.715861 1.04903 -2.41198 2.55852 2.23941 -2.4415 4.20219 2.28164 -43.8103 -17.4546 0.112961 35.9665 19.0748 -2.28868 22.8578 1.78959 7.81181 -168.198 63.0967 -77.4555 -2.38542e-015 -8.15017e-015 1.27222e-014 -5.13582 23.0547 -0.556473 -9.94161e-006 -1.05198e-005 -3.00257 8.03023 -4.95114 0.6976 -85.608 -20.7912 10.0328 -80.6061 25.063 1.50381 1.67583e-005 -7.88591e-006 -8.34393e-007 -17.1401 54.9967 11.9945 1.98989e-005 -7.96436e-006 2.99999 -8.02954 -4.95103 -0.697567 175.016 -10.1675 4.93812 180 7.01508e-015 178.765 179.97 12.668 179.39 -3.89014e-006 2.18043e-006 0.575881 -23.998 73.2288 25.2354 8.34659 34.0719 -1.23479 -177.277 9.9985 0.166467 4.5067e-006 -1.99009e-005 -0.98151 -2.55349 -10.9645 0.0289617 1.01185e-006 -4.00627e-006 -0.107254 17.9606 66.9637 -18.7199 -8.13649 25.2327 3.48774 
62.9459 95.4897 3.50775 3.21869 3.319 62.9582 -1.19162 -0.710829 1.03343 -2.38245 2.57046 2.20664 -2.41154 4.21417 2.24836 -43.8649 -17.4164 0.1451 35.9696 18.9195 -2.21629 23.4033 1.92881 7.83621 -169.141 62.7633 -76.6855 -3.18055e-015 6.55989e-015 1.27222e-014 -4.63987 23.5378 -0.65921 -9.94161e-006 -1.05198e-005 -3.00257 8.03023 -4.95114 0.6976 -85.4876 -20.9122 10.0879 -80.7817 24.9704 1.68957 1.67583e-005 -7.88591e-006 -8.34393e-007 -17.194 54.9502 12.0111 1.98989e-005 -7.96436e-006 2.99999 -8.02954 -4.95103 -0.697567 175.054 -10.1401 4.93166 180 7.01508e-015 178.765 179.944 12.6562 179.395 -3.89014e-006 2.18043e-006 0.574208 -24.0024 73.2308 25.2385 8.35137 34.0832 -1.26126 -177.237 10.0355 0.15413 4.5067e-006 -1.99009e-005 -0.981489 -2.5384 -10.9595 0.0311073 1.01185e-006 -4.00627e-006 -0.107806 17.9706 66.9778 -18.7292 -8.13649 25.2327 3.48774 
62.9191 95.4912 3.5218 3.17887 3.29816 62.9729 -1.17713 -0.705821 1.01825 -2.3536 2.5822 2.17474 -2.3823 4.22594 2.21595 -43.916 -17.3808 0.178291 35.9643 18.7725 -2.14422 23.9217 2.06725 7.86553 -170.065 62.4323 -75.9235 1.19271e-015 7.95139e-016 1.27222e-014 -4.15752 24.0025 -0.761065 -9.94161e-006 -1.05198e-005 -3.00257 8.03023 -4.95114 0.6976 -85.3693 -21.0314 10.1424 -80.9523 24.8812 1.87368 1.67583e-005 -7.88591e-006 -8.34393e-007 -17.2497 54.8971 12.0265 1.98989e-005 -7.96436e-006 2.99999 -8.02954 -4.95103 -0.697567 175.09 -10.11 4.92563 180 7.01508e-015 178.764 179.918 12.6493 179.4 -3.89014e-006 2.18043e-006 0.57287 -24.0123 73.2369 25.2476 8.35607 34.0922 -1.2876 -177.199 10.0697 0.14249 4.5067e-006 -1.99009e-005 -0.981357 -2.52506 -10.9465 0.0330497 1.01185e-006 -4.00627e-006 -0.108098 17.9774 66.9874 -18.7352 -8.13649 25.2327 3.48774 
62.8961 95.4811 3.5097 3.13965 3.28005 62.9889 -1.16319 -0.700849 1.0037 -2.32585 2.59366 2.14416 -2.35415 4.23744 2.18489 -43.9654 -17.348 0.211822 35.9515 18.6352 -2.07372 24.4039 2.20537 7.90271 -170.971 62.1045 -75.1619 1.59028e-015 -1.82882e-014 1.59028e-014 -3.69735 24.4477 -0.860146 -9.94161e-006 -1.05198e-005 -3.00257 8.03023 -4.95114 0.6976 -85.2555 -21.147 10.1953 -81.1147 24.7967 2.05462 1.67583e-005 -7.88591e-006 -8.34393e-007 -17.3078 54.8355 12.0409 1.98989e-005 -7.96436e-006 2.99999 -8.02954 -4.95103 -0.697567 175.124 -10.0767 4.91987 180 7.01508e-015 178.764 179.894 12.6487 179.405 -3.89014e-006 2.18043e-006 0.57196 -24.0281 73.2476 25.2631 8.36065 34.0993 -1.31339 -177.165 10.0999 0.131959 4.5067e-006 -1.99009e-005 -0.981081 -2.51394 -10.9229 0.0347232 1.01185e-006 -4.00627e-006 -0.108044 17.9799 66.9912 -18.7368 -8.13649 25.2327 3.48774 
62.8799 95.4588 3.50988 3.10129 3.26548 63.007 -1.15 -0.695929 0.990008 -2.29959 2.60477 2.11536 -2.32752 4.24857 2.15563 -44.0149 -17.3183 0.244978 35.9319 18.5091 -2.00603 24.8409 2.34364 7.95068 -171.857 61.7806 -74.3933 -2.78299e-015 -1.5704e-014 1.59028e-014 -3.26801 24.872 -0.954526 -9.94161e-006 -1.05198e-005 -3.00257 8.03023 -4.95114 0.6976 -85.1488 -21.257 10.2457 -81.2657 24.7183 2.23089 1.67583e-005 -7.88591e-006 -8.34393e-007 -17.369 54.7636 12.0541 1.98989e-005 -7.96436e-006 2.99999 -8.02954 -4.95103 -0.697567 175.155 -10.0398 4.91417 180 7.01508e-015 178.764 179.871 12.656 179.409 -3.89014e-006 2.18043e-006 0.571573 -24.0502 73.263 25.2855 8.36503 34.1054 -1.33821 -177.135 10.1249 0.122953 4.5067e-006 -1.99009e-005 -0.980629 -2.50551 -10.8859 0.0360624 1.01185e-006 -4.00627e-006 -0.107556 17.9773 66.9878 -18.7331 -8.13649 25.2327 3.48774 
